<mxfile host="65bd71144e" pages="4">
    <diagram id="H7Iwgl3brvasWlT-_a3R" name="Push">
        <mxGraphModel dx="493" dy="902" grid="1" gridSize="10" guides="1" tooltips="1" connect="1" arrows="1" fold="1" page="1" pageScale="1" pageWidth="400" pageHeight="300" math="0" shadow="0">
            <root>
                <mxCell id="0"/>
                <mxCell id="1" parent="0"/>
                <mxCell id="16" value="input_0" style="rounded=0;whiteSpace=wrap;html=1;fillColor=none;fontFamily=Lucida Console;" parent="1" vertex="1">
                    <mxGeometry x="40" y="40" width="80" height="40" as="geometry"/>
                </mxCell>
                <mxCell id="6xQM8Q6v_0f8D6LPPU9K-16" value="2" style="rounded=0;whiteSpace=wrap;html=1;fillColor=none;fontFamily=Lucida Console;" parent="1" vertex="1">
                    <mxGeometry x="40" y="80" width="80" height="40" as="geometry"/>
                </mxCell>
                <mxCell id="6xQM8Q6v_0f8D6LPPU9K-18" value="EXEC" style="text;html=1;strokeColor=none;fillColor=none;align=center;verticalAlign=middle;whiteSpace=wrap;rounded=0;" parent="1" vertex="1">
                    <mxGeometry x="40" y="240" width="80" height="40" as="geometry"/>
                </mxCell>
                <mxCell id="6xQM8Q6v_0f8D6LPPU9K-19" value="int_div" style="rounded=0;whiteSpace=wrap;html=1;fillColor=none;fontFamily=Lucida Console;" parent="1" vertex="1">
                    <mxGeometry x="40" y="120" width="80" height="40" as="geometry"/>
                </mxCell>
                <mxCell id="WNEHJ5weRsav_e6VtRck-16" value="int_to_str" style="rounded=0;whiteSpace=wrap;html=1;fillColor=none;fontFamily=Lucida Console;" parent="1" vertex="1">
                    <mxGeometry x="40" y="200" width="80" height="40" as="geometry"/>
                </mxCell>
                <mxCell id="WNEHJ5weRsav_e6VtRck-17" value="int_add" style="rounded=0;whiteSpace=wrap;html=1;fillColor=none;fontFamily=Lucida Console;" parent="1" vertex="1">
                    <mxGeometry x="40" y="160" width="80" height="40" as="geometry"/>
                </mxCell>
                <mxCell id="WNEHJ5weRsav_e6VtRck-18" value="INT" style="text;html=1;strokeColor=none;fillColor=none;align=center;verticalAlign=middle;whiteSpace=wrap;rounded=0;" parent="1" vertex="1">
                    <mxGeometry x="160" y="240" width="80" height="40" as="geometry"/>
                </mxCell>
                <mxCell id="WNEHJ5weRsav_e6VtRck-19" value="STR" style="text;html=1;strokeColor=none;fillColor=none;align=center;verticalAlign=middle;whiteSpace=wrap;rounded=0;" parent="1" vertex="1">
                    <mxGeometry x="280" y="240" width="80" height="40" as="geometry"/>
                </mxCell>
                <mxCell id="WNEHJ5weRsav_e6VtRck-20" value="" style="endArrow=none;html=1;fontFamily=Lucida Console;exitX=0;exitY=0;exitDx=0;exitDy=0;entryX=1;entryY=0;entryDx=0;entryDy=0;" parent="1" source="WNEHJ5weRsav_e6VtRck-18" target="WNEHJ5weRsav_e6VtRck-18" edge="1">
                    <mxGeometry width="50" height="50" relative="1" as="geometry">
                        <mxPoint x="230" y="210" as="sourcePoint"/>
                        <mxPoint x="280" y="160" as="targetPoint"/>
                    </mxGeometry>
                </mxCell>
                <mxCell id="WNEHJ5weRsav_e6VtRck-21" value="" style="endArrow=none;html=1;fontFamily=Lucida Console;exitX=0;exitY=0;exitDx=0;exitDy=0;entryX=1;entryY=0;entryDx=0;entryDy=0;" parent="1" source="WNEHJ5weRsav_e6VtRck-19" target="WNEHJ5weRsav_e6VtRck-19" edge="1">
                    <mxGeometry width="50" height="50" relative="1" as="geometry">
                        <mxPoint x="170" y="249.9999999999999" as="sourcePoint"/>
                        <mxPoint x="250" y="249.9999999999999" as="targetPoint"/>
                    </mxGeometry>
                </mxCell>
                <mxCell id="WNEHJ5weRsav_e6VtRck-22" value="10" style="rounded=0;whiteSpace=wrap;html=1;fillColor=none;fontFamily=Lucida Console;strokeColor=#000000;" parent="1" vertex="1">
                    <mxGeometry x="560" y="200" width="80" height="40" as="geometry"/>
                </mxCell>
                <mxCell id="WNEHJ5weRsav_e6VtRck-23" value="2" style="rounded=0;whiteSpace=wrap;html=1;fillColor=none;fontFamily=Lucida Console;" parent="1" vertex="1">
                    <mxGeometry x="440" y="80" width="80" height="40" as="geometry"/>
                </mxCell>
                <mxCell id="WNEHJ5weRsav_e6VtRck-24" value="EXEC" style="text;html=1;strokeColor=none;fillColor=none;align=center;verticalAlign=middle;whiteSpace=wrap;rounded=0;" parent="1" vertex="1">
                    <mxGeometry x="440" y="240" width="80" height="40" as="geometry"/>
                </mxCell>
                <mxCell id="WNEHJ5weRsav_e6VtRck-25" value="int_div" style="rounded=0;whiteSpace=wrap;html=1;fillColor=none;fontFamily=Lucida Console;" parent="1" vertex="1">
                    <mxGeometry x="440" y="120" width="80" height="40" as="geometry"/>
                </mxCell>
                <mxCell id="WNEHJ5weRsav_e6VtRck-26" value="int_to_str" style="rounded=0;whiteSpace=wrap;html=1;fillColor=none;fontFamily=Lucida Console;" parent="1" vertex="1">
                    <mxGeometry x="440" y="200" width="80" height="40" as="geometry"/>
                </mxCell>
                <mxCell id="WNEHJ5weRsav_e6VtRck-27" value="int_add" style="rounded=0;whiteSpace=wrap;html=1;fillColor=none;fontFamily=Lucida Console;" parent="1" vertex="1">
                    <mxGeometry x="440" y="160" width="80" height="40" as="geometry"/>
                </mxCell>
                <mxCell id="WNEHJ5weRsav_e6VtRck-28" value="INT" style="text;html=1;strokeColor=none;fillColor=none;align=center;verticalAlign=middle;whiteSpace=wrap;rounded=0;" parent="1" vertex="1">
                    <mxGeometry x="560" y="240" width="80" height="40" as="geometry"/>
                </mxCell>
                <mxCell id="WNEHJ5weRsav_e6VtRck-29" value="STR" style="text;html=1;strokeColor=none;fillColor=none;align=center;verticalAlign=middle;whiteSpace=wrap;rounded=0;" parent="1" vertex="1">
                    <mxGeometry x="680" y="240" width="80" height="40" as="geometry"/>
                </mxCell>
                <mxCell id="WNEHJ5weRsav_e6VtRck-31" value="" style="endArrow=none;html=1;fontFamily=Lucida Console;exitX=0;exitY=0;exitDx=0;exitDy=0;entryX=1;entryY=0;entryDx=0;entryDy=0;" parent="1" source="WNEHJ5weRsav_e6VtRck-29" target="WNEHJ5weRsav_e6VtRck-29" edge="1">
                    <mxGeometry width="50" height="50" relative="1" as="geometry">
                        <mxPoint x="570" y="249.9999999999999" as="sourcePoint"/>
                        <mxPoint x="650" y="249.9999999999999" as="targetPoint"/>
                    </mxGeometry>
                </mxCell>
                <mxCell id="WNEHJ5weRsav_e6VtRck-32" value="10" style="rounded=0;whiteSpace=wrap;html=1;fillColor=none;fontFamily=Lucida Console;" parent="1" vertex="1">
                    <mxGeometry x="160" y="500" width="80" height="40" as="geometry"/>
                </mxCell>
                <mxCell id="WNEHJ5weRsav_e6VtRck-33" value="2" style="rounded=0;whiteSpace=wrap;html=1;fillColor=none;fontFamily=Lucida Console;strokeColor=#000000;" parent="1" vertex="1">
                    <mxGeometry x="160" y="460" width="80" height="40" as="geometry"/>
                </mxCell>
                <mxCell id="WNEHJ5weRsav_e6VtRck-34" value="EXEC" style="text;html=1;strokeColor=none;fillColor=none;align=center;verticalAlign=middle;whiteSpace=wrap;rounded=0;" parent="1" vertex="1">
                    <mxGeometry x="40" y="540" width="80" height="40" as="geometry"/>
                </mxCell>
                <mxCell id="WNEHJ5weRsav_e6VtRck-35" value="int_div" style="rounded=0;whiteSpace=wrap;html=1;fillColor=none;fontFamily=Lucida Console;" parent="1" vertex="1">
                    <mxGeometry x="40" y="420" width="80" height="40" as="geometry"/>
                </mxCell>
                <mxCell id="WNEHJ5weRsav_e6VtRck-36" value="int_to_str" style="rounded=0;whiteSpace=wrap;html=1;fillColor=none;fontFamily=Lucida Console;" parent="1" vertex="1">
                    <mxGeometry x="40" y="500" width="80" height="40" as="geometry"/>
                </mxCell>
                <mxCell id="WNEHJ5weRsav_e6VtRck-37" value="int_add" style="rounded=0;whiteSpace=wrap;html=1;fillColor=none;fontFamily=Lucida Console;" parent="1" vertex="1">
                    <mxGeometry x="40" y="460" width="80" height="40" as="geometry"/>
                </mxCell>
                <mxCell id="WNEHJ5weRsav_e6VtRck-38" value="INT" style="text;html=1;strokeColor=none;fillColor=none;align=center;verticalAlign=middle;whiteSpace=wrap;rounded=0;" parent="1" vertex="1">
                    <mxGeometry x="160" y="540" width="80" height="40" as="geometry"/>
                </mxCell>
                <mxCell id="WNEHJ5weRsav_e6VtRck-39" value="STR" style="text;html=1;strokeColor=none;fillColor=none;align=center;verticalAlign=middle;whiteSpace=wrap;rounded=0;" parent="1" vertex="1">
                    <mxGeometry x="280" y="540" width="80" height="40" as="geometry"/>
                </mxCell>
                <mxCell id="WNEHJ5weRsav_e6VtRck-40" value="" style="endArrow=none;html=1;fontFamily=Lucida Console;exitX=0;exitY=0;exitDx=0;exitDy=0;entryX=1;entryY=0;entryDx=0;entryDy=0;" parent="1" source="WNEHJ5weRsav_e6VtRck-39" target="WNEHJ5weRsav_e6VtRck-39" edge="1">
                    <mxGeometry width="50" height="50" relative="1" as="geometry">
                        <mxPoint x="170" y="549.9999999999999" as="sourcePoint"/>
                        <mxPoint x="250" y="549.9999999999999" as="targetPoint"/>
                    </mxGeometry>
                </mxCell>
                <mxCell id="WNEHJ5weRsav_e6VtRck-41" value="5" style="rounded=0;whiteSpace=wrap;html=1;fillColor=none;fontFamily=Lucida Console;strokeColor=#000000;" parent="1" vertex="1">
                    <mxGeometry x="560" y="500" width="80" height="40" as="geometry"/>
                </mxCell>
                <mxCell id="WNEHJ5weRsav_e6VtRck-43" value="EXEC" style="text;html=1;strokeColor=none;fillColor=none;align=center;verticalAlign=middle;whiteSpace=wrap;rounded=0;" parent="1" vertex="1">
                    <mxGeometry x="440" y="540" width="80" height="40" as="geometry"/>
                </mxCell>
                <mxCell id="WNEHJ5weRsav_e6VtRck-45" value="int_to_str" style="rounded=0;whiteSpace=wrap;html=1;fillColor=none;fontFamily=Lucida Console;" parent="1" vertex="1">
                    <mxGeometry x="440" y="500" width="80" height="40" as="geometry"/>
                </mxCell>
                <mxCell id="WNEHJ5weRsav_e6VtRck-46" value="int_add" style="rounded=0;whiteSpace=wrap;html=1;fillColor=none;fontFamily=Lucida Console;" parent="1" vertex="1">
                    <mxGeometry x="440" y="460" width="80" height="40" as="geometry"/>
                </mxCell>
                <mxCell id="WNEHJ5weRsav_e6VtRck-47" value="INT" style="text;html=1;strokeColor=none;fillColor=none;align=center;verticalAlign=middle;whiteSpace=wrap;rounded=0;" parent="1" vertex="1">
                    <mxGeometry x="560" y="540" width="80" height="40" as="geometry"/>
                </mxCell>
                <mxCell id="WNEHJ5weRsav_e6VtRck-48" value="STR" style="text;html=1;strokeColor=none;fillColor=none;align=center;verticalAlign=middle;whiteSpace=wrap;rounded=0;" parent="1" vertex="1">
                    <mxGeometry x="680" y="540" width="80" height="40" as="geometry"/>
                </mxCell>
                <mxCell id="WNEHJ5weRsav_e6VtRck-49" value="" style="endArrow=none;html=1;fontFamily=Lucida Console;exitX=0;exitY=0;exitDx=0;exitDy=0;entryX=1;entryY=0;entryDx=0;entryDy=0;" parent="1" source="WNEHJ5weRsav_e6VtRck-48" target="WNEHJ5weRsav_e6VtRck-48" edge="1">
                    <mxGeometry width="50" height="50" relative="1" as="geometry">
                        <mxPoint x="570" y="549.9999999999999" as="sourcePoint"/>
                        <mxPoint x="650" y="549.9999999999999" as="targetPoint"/>
                    </mxGeometry>
                </mxCell>
                <mxCell id="WNEHJ5weRsav_e6VtRck-50" value="5" style="rounded=0;whiteSpace=wrap;html=1;fillColor=none;fontFamily=Lucida Console;" parent="1" vertex="1">
                    <mxGeometry x="160" y="800" width="80" height="40" as="geometry"/>
                </mxCell>
                <mxCell id="WNEHJ5weRsav_e6VtRck-51" value="EXEC" style="text;html=1;strokeColor=none;fillColor=none;align=center;verticalAlign=middle;whiteSpace=wrap;rounded=0;" parent="1" vertex="1">
                    <mxGeometry x="40" y="840" width="80" height="40" as="geometry"/>
                </mxCell>
                <mxCell id="WNEHJ5weRsav_e6VtRck-52" value="int_to_str" style="rounded=0;whiteSpace=wrap;html=1;fillColor=none;fontFamily=Lucida Console;" parent="1" vertex="1">
                    <mxGeometry x="40" y="800" width="80" height="40" as="geometry"/>
                </mxCell>
                <mxCell id="WNEHJ5weRsav_e6VtRck-54" value="INT" style="text;html=1;strokeColor=none;fillColor=none;align=center;verticalAlign=middle;whiteSpace=wrap;rounded=0;" parent="1" vertex="1">
                    <mxGeometry x="160" y="840" width="80" height="40" as="geometry"/>
                </mxCell>
                <mxCell id="WNEHJ5weRsav_e6VtRck-55" value="STR" style="text;html=1;strokeColor=none;fillColor=none;align=center;verticalAlign=middle;whiteSpace=wrap;rounded=0;" parent="1" vertex="1">
                    <mxGeometry x="280" y="840" width="80" height="40" as="geometry"/>
                </mxCell>
                <mxCell id="WNEHJ5weRsav_e6VtRck-56" value="" style="endArrow=none;html=1;fontFamily=Lucida Console;exitX=0;exitY=0;exitDx=0;exitDy=0;entryX=1;entryY=0;entryDx=0;entryDy=0;" parent="1" source="WNEHJ5weRsav_e6VtRck-55" target="WNEHJ5weRsav_e6VtRck-55" edge="1">
                    <mxGeometry width="50" height="50" relative="1" as="geometry">
                        <mxPoint x="170" y="849.9999999999999" as="sourcePoint"/>
                        <mxPoint x="250" y="849.9999999999999" as="targetPoint"/>
                    </mxGeometry>
                </mxCell>
                <mxCell id="WNEHJ5weRsav_e6VtRck-57" value="&quot;5&quot;" style="rounded=0;whiteSpace=wrap;html=1;fillColor=none;fontFamily=Lucida Console;strokeColor=#000000;" parent="1" vertex="1">
                    <mxGeometry x="680" y="800" width="80" height="40" as="geometry"/>
                </mxCell>
                <mxCell id="WNEHJ5weRsav_e6VtRck-58" value="EXEC" style="text;html=1;strokeColor=none;fillColor=none;align=center;verticalAlign=middle;whiteSpace=wrap;rounded=0;" parent="1" vertex="1">
                    <mxGeometry x="440" y="840" width="80" height="40" as="geometry"/>
                </mxCell>
                <mxCell id="WNEHJ5weRsav_e6VtRck-60" value="INT" style="text;html=1;strokeColor=none;fillColor=none;align=center;verticalAlign=middle;whiteSpace=wrap;rounded=0;" parent="1" vertex="1">
                    <mxGeometry x="560" y="840" width="80" height="40" as="geometry"/>
                </mxCell>
                <mxCell id="WNEHJ5weRsav_e6VtRck-61" value="STR" style="text;html=1;strokeColor=none;fillColor=none;align=center;verticalAlign=middle;whiteSpace=wrap;rounded=0;" parent="1" vertex="1">
                    <mxGeometry x="680" y="840" width="80" height="40" as="geometry"/>
                </mxCell>
                <mxCell id="WNEHJ5weRsav_e6VtRck-63" value="" style="endArrow=none;html=1;fontFamily=Lucida Console;exitX=0;exitY=0;exitDx=0;exitDy=0;entryX=1;entryY=0;entryDx=0;entryDy=0;" parent="1" source="WNEHJ5weRsav_e6VtRck-58" target="WNEHJ5weRsav_e6VtRck-58" edge="1">
                    <mxGeometry width="50" height="50" relative="1" as="geometry">
                        <mxPoint x="290" y="850" as="sourcePoint"/>
                        <mxPoint x="370" y="850" as="targetPoint"/>
                    </mxGeometry>
                </mxCell>
                <mxCell id="WNEHJ5weRsav_e6VtRck-64" value="" style="endArrow=none;html=1;fontFamily=Lucida Console;exitX=0;exitY=0;exitDx=0;exitDy=0;entryX=1;entryY=0;entryDx=0;entryDy=0;" parent="1" source="WNEHJ5weRsav_e6VtRck-60" target="WNEHJ5weRsav_e6VtRck-60" edge="1">
                    <mxGeometry width="50" height="50" relative="1" as="geometry">
                        <mxPoint x="450" y="850" as="sourcePoint"/>
                        <mxPoint x="530" y="850" as="targetPoint"/>
                    </mxGeometry>
                </mxCell>
                <mxCell id="WNEHJ5weRsav_e6VtRck-66" value="1" style="ellipse;whiteSpace=wrap;html=1;aspect=fixed;fontFamily=Lucida Console;fillColor=#333333;fontStyle=1;fontColor=#FFFFFF;" parent="1" vertex="1">
                    <mxGeometry x="10" y="10" width="20" height="20" as="geometry"/>
                </mxCell>
                <mxCell id="WNEHJ5weRsav_e6VtRck-67" value="2" style="ellipse;whiteSpace=wrap;html=1;aspect=fixed;fontFamily=Lucida Console;fillColor=#333333;fontStyle=1;fontColor=#FFFFFF;" parent="1" vertex="1">
                    <mxGeometry x="410" y="10" width="20" height="20" as="geometry"/>
                </mxCell>
                <mxCell id="WNEHJ5weRsav_e6VtRck-68" value="3" style="ellipse;whiteSpace=wrap;html=1;aspect=fixed;fontFamily=Lucida Console;fillColor=#333333;fontStyle=1;fontColor=#FFFFFF;" parent="1" vertex="1">
                    <mxGeometry x="10" y="310" width="20" height="20" as="geometry"/>
                </mxCell>
                <mxCell id="WNEHJ5weRsav_e6VtRck-69" value="4" style="ellipse;whiteSpace=wrap;html=1;aspect=fixed;fontFamily=Lucida Console;fillColor=#333333;fontStyle=1;fontColor=#FFFFFF;" parent="1" vertex="1">
                    <mxGeometry x="410" y="310" width="20" height="20" as="geometry"/>
                </mxCell>
                <mxCell id="WNEHJ5weRsav_e6VtRck-70" value="5" style="ellipse;whiteSpace=wrap;html=1;aspect=fixed;fontFamily=Lucida Console;fillColor=#333333;fontStyle=1;fontColor=#FFFFFF;" parent="1" vertex="1">
                    <mxGeometry x="10" y="610" width="20" height="20" as="geometry"/>
                </mxCell>
                <mxCell id="WNEHJ5weRsav_e6VtRck-71" value="6" style="ellipse;whiteSpace=wrap;html=1;aspect=fixed;fontFamily=Lucida Console;fillColor=#333333;fontStyle=1;fontColor=#FFFFFF;" parent="1" vertex="1">
                    <mxGeometry x="410" y="610" width="20" height="20" as="geometry"/>
                </mxCell>
                <mxCell id="WNEHJ5weRsav_e6VtRck-72" value="Load program into EXEC in reverse order" style="text;html=1;strokeColor=none;fillColor=none;align=left;verticalAlign=middle;whiteSpace=wrap;rounded=0;fontFamily=Helvetica;fontColor=#000000;" parent="1" vertex="1">
                    <mxGeometry x="40" width="360" height="40" as="geometry"/>
                </mxCell>
                <mxCell id="WNEHJ5weRsav_e6VtRck-73" value="Pop &lt;font color=&quot;#000099&quot; face=&quot;Lucida Console&quot;&gt;&lt;b&gt;input_0&lt;/b&gt;&lt;/font&gt; from EXEC and push &lt;font color=&quot;#990000&quot; face=&quot;Lucida Console&quot;&gt;10&lt;/font&gt; to INT" style="text;html=1;strokeColor=none;fillColor=none;align=left;verticalAlign=middle;whiteSpace=wrap;rounded=0;fontFamily=Helvetica;fontColor=#000000;" parent="1" vertex="1">
                    <mxGeometry x="440" width="360" height="40" as="geometry"/>
                </mxCell>
                <mxCell id="18" value="Pop &lt;font color=&quot;#000099&quot; face=&quot;Lucida Console&quot;&gt;&lt;b&gt;2&lt;/b&gt;&lt;/font&gt; from EXEC and push &lt;font face=&quot;Lucida Console&quot; color=&quot;#990000&quot;&gt;&lt;b&gt;2&lt;/b&gt;&lt;/font&gt; to INT" style="text;html=1;strokeColor=none;fillColor=none;align=left;verticalAlign=middle;whiteSpace=wrap;rounded=0;fontFamily=Helvetica;fontColor=#000000;" parent="1" vertex="1">
                    <mxGeometry x="40" y="300" width="360" height="40" as="geometry"/>
                </mxCell>
                <mxCell id="19" value="Pop &lt;font color=&quot;#000099&quot; face=&quot;Lucida Console&quot;&gt;&lt;b&gt;int_div&lt;/b&gt;&lt;/font&gt;&amp;nbsp;from EXEC, &lt;font color=&quot;#000099&quot; face=&quot;Lucida Console&quot;&gt;10&lt;/font&gt; and &lt;font color=&quot;#000099&quot; face=&quot;Lucida Console&quot;&gt;2&lt;/font&gt; from INT, and push &lt;font color=&quot;#990000&quot; face=&quot;Lucida Console&quot;&gt;5&lt;/font&gt; to INT" style="text;html=1;strokeColor=none;fillColor=none;align=left;verticalAlign=middle;whiteSpace=wrap;rounded=0;fontFamily=Helvetica;fontColor=#000000;" parent="1" vertex="1">
                    <mxGeometry x="440" y="300" width="360" height="40" as="geometry"/>
                </mxCell>
                <mxCell id="20" value="Pop &lt;font color=&quot;#000099&quot; face=&quot;Lucida Console&quot;&gt;int_add&lt;/font&gt;&amp;nbsp;from EXEC" style="text;html=1;strokeColor=none;fillColor=none;align=left;verticalAlign=middle;whiteSpace=wrap;rounded=0;fontFamily=Helvetica;fontColor=#000000;" parent="1" vertex="1">
                    <mxGeometry x="40" y="600" width="360" height="40" as="geometry"/>
                </mxCell>
                <mxCell id="21" value="Pop &lt;font color=&quot;#000099&quot; face=&quot;Lucida Console&quot;&gt;int_to_str&lt;/font&gt; from EXEC, &lt;font color=&quot;#000099&quot; face=&quot;Lucida Console&quot;&gt;5&lt;/font&gt; from INT, and push &lt;font color=&quot;#990000&quot; face=&quot;Lucida Console&quot;&gt;&quot;5&quot;&lt;/font&gt; to STR" style="text;html=1;strokeColor=none;fillColor=none;align=left;verticalAlign=middle;whiteSpace=wrap;rounded=0;fontFamily=Helvetica;fontColor=#000000;" parent="1" vertex="1">
                    <mxGeometry x="440" y="600" width="360" height="40" as="geometry"/>
                </mxCell>
            </root>
        </mxGraphModel>
    </diagram>
    <diagram id="cd3K20fKQtpPDqucXLkY" name="Crossover">
        <mxGraphModel dx="493" dy="902" grid="1" gridSize="10" guides="1" tooltips="1" connect="1" arrows="1" fold="1" page="1" pageScale="1" pageWidth="400" pageHeight="300" math="0" shadow="0">
            <root>
                <mxCell id="0"/>
                <mxCell id="1" parent="0"/>
                <mxCell id="odaUYaOTkoWNbO_-5UAi-1" value="y" style="rounded=1;whiteSpace=wrap;html=1;fillColor=#D5E8D4;fontFamily=Lucida Console;" parent="1" vertex="1">
                    <mxGeometry x="130" y="100" width="40" height="40" as="geometry"/>
                </mxCell>
                <mxCell id="odaUYaOTkoWNbO_-5UAi-3" value="1" style="rounded=1;whiteSpace=wrap;html=1;fillColor=#D5E8D4;fontFamily=Lucida Console;" parent="1" vertex="1">
                    <mxGeometry x="100" y="160" width="40" height="40" as="geometry"/>
                </mxCell>
                <mxCell id="odaUYaOTkoWNbO_-5UAi-4" value="x" style="rounded=1;whiteSpace=wrap;html=1;fillColor=#D5E8D4;fontFamily=Lucida Console;" parent="1" vertex="1">
                    <mxGeometry x="40" y="160" width="40" height="40" as="geometry"/>
                </mxCell>
                <mxCell id="odaUYaOTkoWNbO_-5UAi-5" value="sub" style="rounded=1;whiteSpace=wrap;html=1;fillColor=#D5E8D4;fontFamily=Lucida Console;" parent="1" vertex="1">
                    <mxGeometry x="70" y="100" width="40" height="40" as="geometry"/>
                </mxCell>
                <mxCell id="odaUYaOTkoWNbO_-5UAi-6" value="mult" style="rounded=1;whiteSpace=wrap;html=1;fillColor=#D5E8D4;fontFamily=Lucida Console;" parent="1" vertex="1">
                    <mxGeometry x="100" y="40" width="40" height="40" as="geometry"/>
                </mxCell>
                <mxCell id="odaUYaOTkoWNbO_-5UAi-7" value="" style="endArrow=none;html=1;rounded=0;exitX=0.5;exitY=0;exitDx=0;exitDy=0;entryX=0.5;entryY=1;entryDx=0;entryDy=0;fontFamily=Lucida Console;" parent="1" source="odaUYaOTkoWNbO_-5UAi-5" target="odaUYaOTkoWNbO_-5UAi-6" edge="1">
                    <mxGeometry width="50" height="50" relative="1" as="geometry">
                        <mxPoint x="170" y="120" as="sourcePoint"/>
                        <mxPoint x="220" y="70" as="targetPoint"/>
                    </mxGeometry>
                </mxCell>
                <mxCell id="odaUYaOTkoWNbO_-5UAi-8" value="" style="endArrow=none;html=1;rounded=0;exitX=0.5;exitY=0;exitDx=0;exitDy=0;entryX=0.5;entryY=1;entryDx=0;entryDy=0;fontFamily=Lucida Console;" parent="1" source="odaUYaOTkoWNbO_-5UAi-1" target="odaUYaOTkoWNbO_-5UAi-6" edge="1">
                    <mxGeometry width="50" height="50" relative="1" as="geometry">
                        <mxPoint x="100" y="110" as="sourcePoint"/>
                        <mxPoint x="130" y="90.00000000000011" as="targetPoint"/>
                    </mxGeometry>
                </mxCell>
                <mxCell id="odaUYaOTkoWNbO_-5UAi-9" value="" style="endArrow=none;html=1;rounded=0;exitX=0.5;exitY=0;exitDx=0;exitDy=0;entryX=0.5;entryY=1;entryDx=0;entryDy=0;fontFamily=Lucida Console;" parent="1" source="odaUYaOTkoWNbO_-5UAi-4" target="odaUYaOTkoWNbO_-5UAi-5" edge="1">
                    <mxGeometry width="50" height="50" relative="1" as="geometry">
                        <mxPoint x="110" y="120" as="sourcePoint"/>
                        <mxPoint x="140" y="100.00000000000011" as="targetPoint"/>
                    </mxGeometry>
                </mxCell>
                <mxCell id="odaUYaOTkoWNbO_-5UAi-10" value="" style="endArrow=none;html=1;rounded=0;exitX=0.5;exitY=0;exitDx=0;exitDy=0;entryX=0.5;entryY=1;entryDx=0;entryDy=0;fontFamily=Lucida Console;" parent="1" source="odaUYaOTkoWNbO_-5UAi-3" target="odaUYaOTkoWNbO_-5UAi-5" edge="1">
                    <mxGeometry width="50" height="50" relative="1" as="geometry">
                        <mxPoint x="70" y="170" as="sourcePoint"/>
                        <mxPoint x="100" y="150" as="targetPoint"/>
                    </mxGeometry>
                </mxCell>
                <mxCell id="odaUYaOTkoWNbO_-5UAi-11" value="sin" style="rounded=1;whiteSpace=wrap;html=1;fillColor=#D4E1F5;fontFamily=Lucida Console;" parent="1" vertex="1">
                    <mxGeometry x="320" y="100" width="40" height="40" as="geometry"/>
                </mxCell>
                <mxCell id="odaUYaOTkoWNbO_-5UAi-12" value="y" style="rounded=1;whiteSpace=wrap;html=1;fillColor=#D4E1F5;fontFamily=Lucida Console;" parent="1" vertex="1">
                    <mxGeometry x="320" y="160" width="40" height="40" as="geometry"/>
                </mxCell>
                <mxCell id="odaUYaOTkoWNbO_-5UAi-13" value="x" style="rounded=1;whiteSpace=wrap;html=1;fillColor=#D4E1F5;fontFamily=Lucida Console;" parent="1" vertex="1">
                    <mxGeometry x="260" y="160" width="40" height="40" as="geometry"/>
                </mxCell>
                <mxCell id="odaUYaOTkoWNbO_-5UAi-14" value="neg" style="rounded=1;whiteSpace=wrap;html=1;fillColor=#D4E1F5;fontFamily=Lucida Console;" parent="1" vertex="1">
                    <mxGeometry x="260" y="100" width="40" height="40" as="geometry"/>
                </mxCell>
                <mxCell id="odaUYaOTkoWNbO_-5UAi-15" value="add" style="rounded=1;whiteSpace=wrap;html=1;fillColor=#D4E1F5;fontFamily=Lucida Console;" parent="1" vertex="1">
                    <mxGeometry x="290" y="40" width="40" height="40" as="geometry"/>
                </mxCell>
                <mxCell id="odaUYaOTkoWNbO_-5UAi-16" value="" style="endArrow=none;html=1;rounded=0;exitX=0.5;exitY=0;exitDx=0;exitDy=0;entryX=0.5;entryY=1;entryDx=0;entryDy=0;fontFamily=Lucida Console;" parent="1" source="odaUYaOTkoWNbO_-5UAi-14" target="odaUYaOTkoWNbO_-5UAi-15" edge="1">
                    <mxGeometry width="50" height="50" relative="1" as="geometry">
                        <mxPoint x="360" y="120" as="sourcePoint"/>
                        <mxPoint x="410" y="70" as="targetPoint"/>
                    </mxGeometry>
                </mxCell>
                <mxCell id="odaUYaOTkoWNbO_-5UAi-17" value="" style="endArrow=none;html=1;rounded=0;exitX=0.5;exitY=0;exitDx=0;exitDy=0;entryX=0.5;entryY=1;entryDx=0;entryDy=0;fontFamily=Lucida Console;" parent="1" source="odaUYaOTkoWNbO_-5UAi-11" target="odaUYaOTkoWNbO_-5UAi-15" edge="1">
                    <mxGeometry width="50" height="50" relative="1" as="geometry">
                        <mxPoint x="290" y="110" as="sourcePoint"/>
                        <mxPoint x="320" y="90.00000000000011" as="targetPoint"/>
                    </mxGeometry>
                </mxCell>
                <mxCell id="odaUYaOTkoWNbO_-5UAi-18" value="" style="endArrow=none;html=1;rounded=0;exitX=0.5;exitY=0;exitDx=0;exitDy=0;entryX=0.5;entryY=1;entryDx=0;entryDy=0;fontFamily=Lucida Console;" parent="1" source="odaUYaOTkoWNbO_-5UAi-13" target="odaUYaOTkoWNbO_-5UAi-14" edge="1">
                    <mxGeometry width="50" height="50" relative="1" as="geometry">
                        <mxPoint x="300" y="120" as="sourcePoint"/>
                        <mxPoint x="330" y="100.00000000000011" as="targetPoint"/>
                    </mxGeometry>
                </mxCell>
                <mxCell id="odaUYaOTkoWNbO_-5UAi-20" value="" style="endArrow=none;html=1;rounded=0;entryX=0.5;entryY=1;entryDx=0;entryDy=0;exitX=0.5;exitY=0;exitDx=0;exitDy=0;fontFamily=Lucida Console;" parent="1" source="odaUYaOTkoWNbO_-5UAi-12" target="odaUYaOTkoWNbO_-5UAi-11" edge="1">
                    <mxGeometry width="50" height="50" relative="1" as="geometry">
                        <mxPoint x="370" y="180" as="sourcePoint"/>
                        <mxPoint x="330" y="230" as="targetPoint"/>
                    </mxGeometry>
                </mxCell>
                <mxCell id="odaUYaOTkoWNbO_-5UAi-21" value="y" style="rounded=1;whiteSpace=wrap;html=1;fillColor=#D5E8D4;fontFamily=Lucida Console;" parent="1" vertex="1">
                    <mxGeometry x="130" y="360" width="40" height="40" as="geometry"/>
                </mxCell>
                <mxCell id="odaUYaOTkoWNbO_-5UAi-22" value="sin" style="rounded=1;whiteSpace=wrap;html=1;fillColor=#D4E1F5;fontFamily=Lucida Console;" parent="1" vertex="1">
                    <mxGeometry x="100" y="420" width="40" height="40" as="geometry"/>
                </mxCell>
                <mxCell id="odaUYaOTkoWNbO_-5UAi-23" value="x" style="rounded=1;whiteSpace=wrap;html=1;fillColor=#D5E8D4;fontFamily=Lucida Console;" parent="1" vertex="1">
                    <mxGeometry x="40" y="420" width="40" height="40" as="geometry"/>
                </mxCell>
                <mxCell id="odaUYaOTkoWNbO_-5UAi-24" value="sub" style="rounded=1;whiteSpace=wrap;html=1;fillColor=#D5E8D4;fontFamily=Lucida Console;" parent="1" vertex="1">
                    <mxGeometry x="70" y="360" width="40" height="40" as="geometry"/>
                </mxCell>
                <mxCell id="odaUYaOTkoWNbO_-5UAi-25" value="mult" style="rounded=1;whiteSpace=wrap;html=1;fillColor=#D5E8D4;fontFamily=Lucida Console;" parent="1" vertex="1">
                    <mxGeometry x="100" y="300" width="40" height="40" as="geometry"/>
                </mxCell>
                <mxCell id="odaUYaOTkoWNbO_-5UAi-26" value="" style="endArrow=none;html=1;rounded=0;exitX=0.5;exitY=0;exitDx=0;exitDy=0;entryX=0.5;entryY=1;entryDx=0;entryDy=0;fontFamily=Lucida Console;" parent="1" source="odaUYaOTkoWNbO_-5UAi-24" target="odaUYaOTkoWNbO_-5UAi-25" edge="1">
                    <mxGeometry width="50" height="50" relative="1" as="geometry">
                        <mxPoint x="170" y="380" as="sourcePoint"/>
                        <mxPoint x="220" y="330" as="targetPoint"/>
                    </mxGeometry>
                </mxCell>
                <mxCell id="odaUYaOTkoWNbO_-5UAi-27" value="" style="endArrow=none;html=1;rounded=0;exitX=0.5;exitY=0;exitDx=0;exitDy=0;entryX=0.5;entryY=1;entryDx=0;entryDy=0;fontFamily=Lucida Console;" parent="1" source="odaUYaOTkoWNbO_-5UAi-21" target="odaUYaOTkoWNbO_-5UAi-25" edge="1">
                    <mxGeometry width="50" height="50" relative="1" as="geometry">
                        <mxPoint x="100" y="370" as="sourcePoint"/>
                        <mxPoint x="130" y="350.0000000000001" as="targetPoint"/>
                    </mxGeometry>
                </mxCell>
                <mxCell id="odaUYaOTkoWNbO_-5UAi-28" value="" style="endArrow=none;html=1;rounded=0;exitX=0.5;exitY=0;exitDx=0;exitDy=0;entryX=0.5;entryY=1;entryDx=0;entryDy=0;fontFamily=Lucida Console;" parent="1" source="odaUYaOTkoWNbO_-5UAi-23" target="odaUYaOTkoWNbO_-5UAi-24" edge="1">
                    <mxGeometry width="50" height="50" relative="1" as="geometry">
                        <mxPoint x="110" y="380" as="sourcePoint"/>
                        <mxPoint x="140" y="360.0000000000001" as="targetPoint"/>
                    </mxGeometry>
                </mxCell>
                <mxCell id="odaUYaOTkoWNbO_-5UAi-29" value="" style="endArrow=none;html=1;rounded=0;exitX=0.5;exitY=0;exitDx=0;exitDy=0;entryX=0.5;entryY=1;entryDx=0;entryDy=0;fontFamily=Lucida Console;" parent="1" source="odaUYaOTkoWNbO_-5UAi-22" target="odaUYaOTkoWNbO_-5UAi-24" edge="1">
                    <mxGeometry width="50" height="50" relative="1" as="geometry">
                        <mxPoint x="70" y="430" as="sourcePoint"/>
                        <mxPoint x="100" y="410" as="targetPoint"/>
                    </mxGeometry>
                </mxCell>
                <mxCell id="odaUYaOTkoWNbO_-5UAi-30" value="1" style="rounded=1;whiteSpace=wrap;html=1;fillColor=#D5E8D4;fontFamily=Lucida Console;" parent="1" vertex="1">
                    <mxGeometry x="320" y="360" width="40" height="40" as="geometry"/>
                </mxCell>
                <mxCell id="odaUYaOTkoWNbO_-5UAi-31" value="y" style="rounded=1;whiteSpace=wrap;html=1;fillColor=#D4E1F5;fontFamily=Lucida Console;" parent="1" vertex="1">
                    <mxGeometry x="100" y="480" width="40" height="40" as="geometry"/>
                </mxCell>
                <mxCell id="odaUYaOTkoWNbO_-5UAi-32" value="x" style="rounded=1;whiteSpace=wrap;html=1;fillColor=#D4E1F5;fontFamily=Lucida Console;" parent="1" vertex="1">
                    <mxGeometry x="260" y="420" width="40" height="40" as="geometry"/>
                </mxCell>
                <mxCell id="odaUYaOTkoWNbO_-5UAi-33" value="neg" style="rounded=1;whiteSpace=wrap;html=1;fillColor=#D4E1F5;fontFamily=Lucida Console;" parent="1" vertex="1">
                    <mxGeometry x="260" y="360" width="40" height="40" as="geometry"/>
                </mxCell>
                <mxCell id="odaUYaOTkoWNbO_-5UAi-34" value="add" style="rounded=1;whiteSpace=wrap;html=1;fillColor=#D4E1F5;fontFamily=Lucida Console;" parent="1" vertex="1">
                    <mxGeometry x="290" y="300" width="40" height="40" as="geometry"/>
                </mxCell>
                <mxCell id="odaUYaOTkoWNbO_-5UAi-35" value="" style="endArrow=none;html=1;rounded=0;exitX=0.5;exitY=0;exitDx=0;exitDy=0;entryX=0.5;entryY=1;entryDx=0;entryDy=0;fontFamily=Lucida Console;" parent="1" source="odaUYaOTkoWNbO_-5UAi-33" target="odaUYaOTkoWNbO_-5UAi-34" edge="1">
                    <mxGeometry width="50" height="50" relative="1" as="geometry">
                        <mxPoint x="360" y="380" as="sourcePoint"/>
                        <mxPoint x="410" y="330" as="targetPoint"/>
                    </mxGeometry>
                </mxCell>
                <mxCell id="odaUYaOTkoWNbO_-5UAi-36" value="" style="endArrow=none;html=1;rounded=0;exitX=0.5;exitY=0;exitDx=0;exitDy=0;entryX=0.5;entryY=1;entryDx=0;entryDy=0;fontFamily=Lucida Console;" parent="1" source="odaUYaOTkoWNbO_-5UAi-30" target="odaUYaOTkoWNbO_-5UAi-34" edge="1">
                    <mxGeometry width="50" height="50" relative="1" as="geometry">
                        <mxPoint x="290" y="370" as="sourcePoint"/>
                        <mxPoint x="320" y="350.0000000000001" as="targetPoint"/>
                    </mxGeometry>
                </mxCell>
                <mxCell id="odaUYaOTkoWNbO_-5UAi-37" value="" style="endArrow=none;html=1;rounded=0;exitX=0.5;exitY=0;exitDx=0;exitDy=0;entryX=0.5;entryY=1;entryDx=0;entryDy=0;fontFamily=Lucida Console;" parent="1" source="odaUYaOTkoWNbO_-5UAi-32" target="odaUYaOTkoWNbO_-5UAi-33" edge="1">
                    <mxGeometry width="50" height="50" relative="1" as="geometry">
                        <mxPoint x="300" y="380" as="sourcePoint"/>
                        <mxPoint x="330" y="360.0000000000001" as="targetPoint"/>
                    </mxGeometry>
                </mxCell>
                <mxCell id="odaUYaOTkoWNbO_-5UAi-38" value="" style="endArrow=none;html=1;rounded=0;entryX=0.5;entryY=1;entryDx=0;entryDy=0;exitX=0.5;exitY=0;exitDx=0;exitDy=0;fontFamily=Lucida Console;" parent="1" source="odaUYaOTkoWNbO_-5UAi-31" target="odaUYaOTkoWNbO_-5UAi-22" edge="1">
                    <mxGeometry width="50" height="50" relative="1" as="geometry">
                        <mxPoint x="380" y="440" as="sourcePoint"/>
                        <mxPoint x="340" y="490" as="targetPoint"/>
                    </mxGeometry>
                </mxCell>
                <mxCell id="odaUYaOTkoWNbO_-5UAi-39" value="" style="rounded=0;whiteSpace=wrap;html=1;fontFamily=Lucida Console;fillColor=none;dashed=1;" parent="1" vertex="1">
                    <mxGeometry x="90" y="150" width="60" height="60" as="geometry"/>
                </mxCell>
                <mxCell id="odaUYaOTkoWNbO_-5UAi-40" value="" style="rounded=0;whiteSpace=wrap;html=1;fontFamily=Lucida Console;fillColor=none;dashed=1;" parent="1" vertex="1">
                    <mxGeometry x="310" y="90" width="60" height="120" as="geometry"/>
                </mxCell>
                <mxCell id="odaUYaOTkoWNbO_-5UAi-42" value="Crossover" style="endArrow=classic;html=1;rounded=0;fontFamily=Helvetica;" parent="1" edge="1">
                    <mxGeometry width="50" height="50" relative="1" as="geometry">
                        <mxPoint x="200" y="220" as="sourcePoint"/>
                        <mxPoint x="200" y="280" as="targetPoint"/>
                    </mxGeometry>
                </mxCell>
            </root>
        </mxGraphModel>
    </diagram>
    <diagram id="H2juK6n-2TGvAY003XPS" name="Mutation">
        <mxGraphModel dx="493" dy="902" grid="1" gridSize="10" guides="1" tooltips="1" connect="1" arrows="1" fold="1" page="1" pageScale="1" pageWidth="400" pageHeight="300" math="0" shadow="0">
            <root>
                <mxCell id="0"/>
                <mxCell id="1" parent="0"/>
                <mxCell id="YPIVXQknK2EzUA5q5D-G-1" value="y" style="rounded=1;whiteSpace=wrap;html=1;fillColor=#D5E8D4;fontFamily=Lucida Console;" parent="1" vertex="1">
                    <mxGeometry x="100" y="100" width="40" height="40" as="geometry"/>
                </mxCell>
                <mxCell id="YPIVXQknK2EzUA5q5D-G-2" value="1" style="rounded=1;whiteSpace=wrap;html=1;fillColor=#D5E8D4;fontFamily=Lucida Console;" parent="1" vertex="1">
                    <mxGeometry x="70" y="160" width="40" height="40" as="geometry"/>
                </mxCell>
                <mxCell id="YPIVXQknK2EzUA5q5D-G-3" value="x" style="rounded=1;whiteSpace=wrap;html=1;fillColor=#D5E8D4;fontFamily=Lucida Console;" parent="1" vertex="1">
                    <mxGeometry x="10" y="160" width="40" height="40" as="geometry"/>
                </mxCell>
                <mxCell id="YPIVXQknK2EzUA5q5D-G-4" value="sub" style="rounded=1;whiteSpace=wrap;html=1;fillColor=#D5E8D4;fontFamily=Lucida Console;" parent="1" vertex="1">
                    <mxGeometry x="40" y="100" width="40" height="40" as="geometry"/>
                </mxCell>
                <mxCell id="YPIVXQknK2EzUA5q5D-G-5" value="mult" style="rounded=1;whiteSpace=wrap;html=1;fillColor=#D5E8D4;fontFamily=Lucida Console;" parent="1" vertex="1">
                    <mxGeometry x="70" y="40" width="40" height="40" as="geometry"/>
                </mxCell>
                <mxCell id="YPIVXQknK2EzUA5q5D-G-6" value="" style="endArrow=none;html=1;rounded=0;exitX=0.5;exitY=0;exitDx=0;exitDy=0;entryX=0.5;entryY=1;entryDx=0;entryDy=0;fontFamily=Lucida Console;" parent="1" source="YPIVXQknK2EzUA5q5D-G-4" target="YPIVXQknK2EzUA5q5D-G-5" edge="1">
                    <mxGeometry width="50" height="50" relative="1" as="geometry">
                        <mxPoint x="140" y="120" as="sourcePoint"/>
                        <mxPoint x="190" y="70" as="targetPoint"/>
                    </mxGeometry>
                </mxCell>
                <mxCell id="YPIVXQknK2EzUA5q5D-G-7" value="" style="endArrow=none;html=1;rounded=0;exitX=0.5;exitY=0;exitDx=0;exitDy=0;entryX=0.5;entryY=1;entryDx=0;entryDy=0;fontFamily=Lucida Console;" parent="1" source="YPIVXQknK2EzUA5q5D-G-1" target="YPIVXQknK2EzUA5q5D-G-5" edge="1">
                    <mxGeometry width="50" height="50" relative="1" as="geometry">
                        <mxPoint x="70" y="110" as="sourcePoint"/>
                        <mxPoint x="100" y="90.00000000000011" as="targetPoint"/>
                    </mxGeometry>
                </mxCell>
                <mxCell id="YPIVXQknK2EzUA5q5D-G-8" value="" style="endArrow=none;html=1;rounded=0;exitX=0.5;exitY=0;exitDx=0;exitDy=0;entryX=0.5;entryY=1;entryDx=0;entryDy=0;fontFamily=Lucida Console;" parent="1" source="YPIVXQknK2EzUA5q5D-G-3" target="YPIVXQknK2EzUA5q5D-G-4" edge="1">
                    <mxGeometry width="50" height="50" relative="1" as="geometry">
                        <mxPoint x="80" y="120" as="sourcePoint"/>
                        <mxPoint x="110" y="100.00000000000011" as="targetPoint"/>
                    </mxGeometry>
                </mxCell>
                <mxCell id="YPIVXQknK2EzUA5q5D-G-9" value="" style="endArrow=none;html=1;rounded=0;exitX=0.5;exitY=0;exitDx=0;exitDy=0;entryX=0.5;entryY=1;entryDx=0;entryDy=0;fontFamily=Lucida Console;" parent="1" source="YPIVXQknK2EzUA5q5D-G-2" target="YPIVXQknK2EzUA5q5D-G-4" edge="1">
                    <mxGeometry width="50" height="50" relative="1" as="geometry">
                        <mxPoint x="40" y="170" as="sourcePoint"/>
                        <mxPoint x="70" y="150" as="targetPoint"/>
                    </mxGeometry>
                </mxCell>
                <mxCell id="YPIVXQknK2EzUA5q5D-G-10" value="" style="rounded=0;whiteSpace=wrap;html=1;fontFamily=Lucida Console;fillColor=none;dashed=1;" parent="1" vertex="1">
                    <mxGeometry x="60" y="150" width="60" height="60" as="geometry"/>
                </mxCell>
                <mxCell id="YPIVXQknK2EzUA5q5D-G-11" value="y" style="rounded=1;whiteSpace=wrap;html=1;fillColor=#D5E8D4;fontFamily=Lucida Console;" parent="1" vertex="1">
                    <mxGeometry x="350" y="100" width="40" height="40" as="geometry"/>
                </mxCell>
                <mxCell id="YPIVXQknK2EzUA5q5D-G-13" value="x" style="rounded=1;whiteSpace=wrap;html=1;fillColor=#D5E8D4;fontFamily=Lucida Console;" parent="1" vertex="1">
                    <mxGeometry x="260" y="160" width="40" height="40" as="geometry"/>
                </mxCell>
                <mxCell id="YPIVXQknK2EzUA5q5D-G-14" value="sub" style="rounded=1;whiteSpace=wrap;html=1;fillColor=#D5E8D4;fontFamily=Lucida Console;" parent="1" vertex="1">
                    <mxGeometry x="290" y="100" width="40" height="40" as="geometry"/>
                </mxCell>
                <mxCell id="YPIVXQknK2EzUA5q5D-G-15" value="mult" style="rounded=1;whiteSpace=wrap;html=1;fillColor=#D5E8D4;fontFamily=Lucida Console;" parent="1" vertex="1">
                    <mxGeometry x="320" y="40" width="40" height="40" as="geometry"/>
                </mxCell>
                <mxCell id="YPIVXQknK2EzUA5q5D-G-16" value="" style="endArrow=none;html=1;rounded=0;exitX=0.5;exitY=0;exitDx=0;exitDy=0;entryX=0.5;entryY=1;entryDx=0;entryDy=0;fontFamily=Lucida Console;" parent="1" source="YPIVXQknK2EzUA5q5D-G-14" target="YPIVXQknK2EzUA5q5D-G-15" edge="1">
                    <mxGeometry width="50" height="50" relative="1" as="geometry">
                        <mxPoint x="390" y="120" as="sourcePoint"/>
                        <mxPoint x="440" y="70" as="targetPoint"/>
                    </mxGeometry>
                </mxCell>
                <mxCell id="YPIVXQknK2EzUA5q5D-G-17" value="" style="endArrow=none;html=1;rounded=0;exitX=0.5;exitY=0;exitDx=0;exitDy=0;entryX=0.5;entryY=1;entryDx=0;entryDy=0;fontFamily=Lucida Console;" parent="1" source="YPIVXQknK2EzUA5q5D-G-11" target="YPIVXQknK2EzUA5q5D-G-15" edge="1">
                    <mxGeometry width="50" height="50" relative="1" as="geometry">
                        <mxPoint x="320" y="110" as="sourcePoint"/>
                        <mxPoint x="350" y="90.00000000000011" as="targetPoint"/>
                    </mxGeometry>
                </mxCell>
                <mxCell id="YPIVXQknK2EzUA5q5D-G-18" value="" style="endArrow=none;html=1;rounded=0;exitX=0.5;exitY=0;exitDx=0;exitDy=0;entryX=0.5;entryY=1;entryDx=0;entryDy=0;fontFamily=Lucida Console;" parent="1" source="YPIVXQknK2EzUA5q5D-G-13" target="YPIVXQknK2EzUA5q5D-G-14" edge="1">
                    <mxGeometry width="50" height="50" relative="1" as="geometry">
                        <mxPoint x="330" y="120" as="sourcePoint"/>
                        <mxPoint x="360" y="100.00000000000011" as="targetPoint"/>
                    </mxGeometry>
                </mxCell>
                <mxCell id="YPIVXQknK2EzUA5q5D-G-19" value="" style="endArrow=none;html=1;rounded=0;exitX=0.5;exitY=0;exitDx=0;exitDy=0;entryX=0.5;entryY=1;entryDx=0;entryDy=0;fontFamily=Lucida Console;" parent="1" source="YPIVXQknK2EzUA5q5D-G-23" target="YPIVXQknK2EzUA5q5D-G-14" edge="1">
                    <mxGeometry width="50" height="50" relative="1" as="geometry">
                        <mxPoint x="340" y="160" as="sourcePoint"/>
                        <mxPoint x="320" y="150" as="targetPoint"/>
                    </mxGeometry>
                </mxCell>
                <mxCell id="YPIVXQknK2EzUA5q5D-G-21" value="1" style="rounded=1;whiteSpace=wrap;html=1;fillColor=#D4E1F5;fontFamily=Lucida Console;" parent="1" vertex="1">
                    <mxGeometry x="350" y="220" width="40" height="40" as="geometry"/>
                </mxCell>
                <mxCell id="YPIVXQknK2EzUA5q5D-G-22" value="y" style="rounded=1;whiteSpace=wrap;html=1;fillColor=#D4E1F5;fontFamily=Lucida Console;" parent="1" vertex="1">
                    <mxGeometry x="290" y="220" width="40" height="40" as="geometry"/>
                </mxCell>
                <mxCell id="YPIVXQknK2EzUA5q5D-G-23" value="add" style="rounded=1;whiteSpace=wrap;html=1;fillColor=#D4E1F5;fontFamily=Lucida Console;" parent="1" vertex="1">
                    <mxGeometry x="320" y="160" width="40" height="40" as="geometry"/>
                </mxCell>
                <mxCell id="YPIVXQknK2EzUA5q5D-G-24" value="" style="endArrow=none;html=1;rounded=0;exitX=0.5;exitY=0;exitDx=0;exitDy=0;entryX=0.5;entryY=1;entryDx=0;entryDy=0;fontFamily=Lucida Console;" parent="1" source="YPIVXQknK2EzUA5q5D-G-22" target="YPIVXQknK2EzUA5q5D-G-23" edge="1">
                    <mxGeometry width="50" height="50" relative="1" as="geometry">
                        <mxPoint x="360" y="180" as="sourcePoint"/>
                        <mxPoint x="390" y="160.0000000000001" as="targetPoint"/>
                    </mxGeometry>
                </mxCell>
                <mxCell id="YPIVXQknK2EzUA5q5D-G-25" value="" style="endArrow=none;html=1;rounded=0;exitX=0.5;exitY=0;exitDx=0;exitDy=0;entryX=0.5;entryY=1;entryDx=0;entryDy=0;fontFamily=Lucida Console;" parent="1" source="YPIVXQknK2EzUA5q5D-G-21" target="YPIVXQknK2EzUA5q5D-G-23" edge="1">
                    <mxGeometry width="50" height="50" relative="1" as="geometry">
                        <mxPoint x="320" y="230" as="sourcePoint"/>
                        <mxPoint x="350" y="210" as="targetPoint"/>
                    </mxGeometry>
                </mxCell>
                <mxCell id="OEhHSAdULiaWl4qNFRqb-1" value="Mutation" style="endArrow=classic;html=1;rounded=0;fontFamily=Helvetica;" parent="1" edge="1">
                    <mxGeometry width="50" height="50" relative="1" as="geometry">
                        <mxPoint x="160" y="120" as="sourcePoint"/>
                        <mxPoint x="240" y="120" as="targetPoint"/>
                    </mxGeometry>
                </mxCell>
            </root>
        </mxGraphModel>
    </diagram>
    <diagram id="V_cBCZyIKU-aM83lp1Bm" name="GP">
        <mxGraphModel dx="493" dy="902" grid="1" gridSize="10" guides="1" tooltips="1" connect="1" arrows="1" fold="1" page="1" pageScale="1" pageWidth="400" pageHeight="300" math="0" shadow="0">
            <root>
                <mxCell id="0"/>
                <mxCell id="1" parent="0"/>
                <mxCell id="pgz3Om2AtdmwDpnfaaoH-1" value="Selection" style="edgeStyle=orthogonalEdgeStyle;rounded=0;orthogonalLoop=1;jettySize=auto;html=1;exitX=1;exitY=0.5;exitDx=0;exitDy=0;entryX=1;entryY=0.5;entryDx=0;entryDy=0;" parent="1" source="ESWSOLaR8vFL03PjOsAR-1" target="ESWSOLaR8vFL03PjOsAR-2" edge="1">
                    <mxGeometry relative="1" as="geometry">
                        <Array as="points">
                            <mxPoint x="280" y="100"/>
                            <mxPoint x="280" y="220"/>
                        </Array>
                    </mxGeometry>
                </mxCell>
                <mxCell id="ESWSOLaR8vFL03PjOsAR-1" value="Programs" style="rounded=0;whiteSpace=wrap;html=1;fillColor=none;" parent="1" vertex="1">
                    <mxGeometry x="160" y="80" width="80" height="40" as="geometry"/>
                </mxCell>
                <mxCell id="pgz3Om2AtdmwDpnfaaoH-2" value="Crossover&lt;br&gt;&amp;amp;&lt;br&gt;Mutation" style="edgeStyle=orthogonalEdgeStyle;rounded=0;orthogonalLoop=1;jettySize=auto;html=1;exitX=0;exitY=0.5;exitDx=0;exitDy=0;entryX=0.011;entryY=0.418;entryDx=0;entryDy=0;entryPerimeter=0;" parent="1" source="ESWSOLaR8vFL03PjOsAR-2" target="ESWSOLaR8vFL03PjOsAR-1" edge="1">
                    <mxGeometry relative="1" as="geometry">
                        <Array as="points">
                            <mxPoint x="120" y="220"/>
                            <mxPoint x="120" y="97"/>
                        </Array>
                    </mxGeometry>
                </mxCell>
                <mxCell id="ESWSOLaR8vFL03PjOsAR-2" value="&quot;Better&quot; Programs" style="rounded=0;whiteSpace=wrap;html=1;fillColor=none;" parent="1" vertex="1">
                    <mxGeometry x="160" y="200" width="80" height="40" as="geometry"/>
                </mxCell>
                <mxCell id="HOJlUHCfodiUUT-3R_ud-1" value="Initialization" style="endArrow=classic;html=1;rounded=0;entryX=0.5;entryY=0;entryDx=0;entryDy=0;" parent="1" target="ESWSOLaR8vFL03PjOsAR-1" edge="1">
                    <mxGeometry width="50" height="50" relative="1" as="geometry">
                        <mxPoint x="80" y="60" as="sourcePoint"/>
                        <mxPoint x="220" y="160" as="targetPoint"/>
                        <Array as="points">
                            <mxPoint x="200" y="60"/>
                        </Array>
                    </mxGeometry>
                </mxCell>
            </root>
        </mxGraphModel>
    </diagram>
</mxfile>